<svg xmlns="http://www.w3.org/2000/svg" xmlns:xlink="http://www.w3.org/1999/xlink" xml:space="preserve" width="1172" height="374"><rect x="0" y="0" width="1172" height="374" style="fill: #ffffff; fill-opacity: 1;"></rect><g class="subplot xy"><rect x="78" y="98" width="1016" height="198" style="stroke-width: 0px; fill: #ffffff; fill-opacity: 1;"></rect><g><path class="xgrid crisp" d="M80,100v194" transform="translate(252.49,0)" style="stroke: #dddddd; stroke-opacity: 1; stroke-width: 1px;"></path><path class="xgrid crisp" d="M80,100v194" transform="translate(505.49,0)" style="stroke: #dddddd; stroke-opacity: 1; stroke-width: 1px;"></path><path class="xgrid crisp" d="M80,100v194" transform="translate(758.49,0)" style="stroke: #dddddd; stroke-opacity: 1; stroke-width: 1px;"></path><path class="ygrid crisp" d="M80,100h1012" transform="translate(0,136.07)" style="stroke: #dddddd; stroke-opacity: 1; stroke-width: 1px;"></path><path class="ygrid crisp" d="M80,100h1012" transform="translate(0,87.84)" style="stroke: #dddddd; stroke-opacity: 1; stroke-width: 1px;"></path><path class="ygrid crisp" d="M80,100h1012" transform="translate(0,39.6)" style="stroke: #dddddd; stroke-opacity: 1; stroke-width: 1px;"></path></g><g></g><g><path class="yzl zl crisp" d="M80,100h1012" transform="translate(0,184.3)" style="stroke: #000000; stroke-opacity: 1; stroke-width: 1px;"></path></g><g></g><svg preserveAspectRatio="none" x="80" y="100" width="1012" height="194" style="fill: none;" viewBox="0 0 1012 194"><g class="errorbars" style="stroke: #000000;"></g><g class="errorbars" style="stroke: #000000;"></g><g class="errorbars" style="stroke: #000000;"></g><g class="errorbars" style="stroke: #000000;"></g><g class="trace scatter" style="stroke-miterlimit: 2; opacity: 1;"><path class="js-line" d="M0,184.3L0.51,183.34L1.01,177.55L1.52,182.37L2.02,179.48L2.53,176.58L3.04,168.87L3.54,181.41L4.05,165.97L4.55,178.51L5.06,170.8L5.57,175.62L6.07,175.62L6.58,167.9L7.59,180.44L8.1,172.72L8.6,165.01L9.11,165.01L9.61,177.55L10.63,169.83L11.13,169.83L11.64,174.65L12.14,162.11L12.65,174.65L13.16,77.22L13.66,166.94L14.17,166.94L15.18,82.05L15.69,179.48L16.19,159.22L16.7,171.76L17.2,171.76L17.71,164.04L18.22,164.04L18.72,164.04L19.23,151.5L19.73,176.58L20.24,79.15L20.75,176.58L21.25,156.33L21.76,168.87L22.77,168.87L23.28,83.98L23.78,173.69L24.29,161.15L24.79,161.15L25.81,173.69L26.31,173.69L26.82,76.26L27.32,76.26L27.83,165.97L28.34,153.43L28.84,165.97L29.35,153.43L29.85,165.97L30.36,165.97L30.87,81.08L31.88,178.51L32.38,158.25L33.4,158.25L33.9,170.8L34.91,170.8L35.42,85.91L35.93,163.08L36.43,73.37L36.94,163.08L37.44,170.8L37.95,163.08L38.46,163.08L38.96,150.54L39.47,150.54L39.97,175.62L40.48,163.08L40.99,78.19L41.49,78.19L42,175.62L42.5,175.62L43.01,155.36L44.02,167.9L44.53,155.36L45.03,167.9L45.54,95.55L46.05,167.9L47.06,83.01L47.56,83.01L48.07,172.72L48.58,70.47L49.08,160.18L50.09,160.18L50.6,160.18L51.61,100.38L52.12,172.72L52.62,147.64L53.13,172.72L53.64,87.84L54.14,75.3L54.65,75.3L55.15,75.3L55.66,117.74L56.17,165.01L56.67,172.72L57.18,152.47L57.68,152.47L58.19,165.01L59.2,152.47L59.71,152.47L60.21,165.01L60.72,92.66L61.23,165.01L61.73,139.93L62.24,80.12L62.74,80.12L63.76,139.93L64.26,177.55L64.77,67.58L65.27,157.29L65.78,157.29L66.79,157.29L67.3,157.29L67.8,144.75L68.31,169.83L68.82,97.48L69.32,169.83L69.83,144.75L70.33,169.83L71.35,84.94L71.85,84.94L72.36,162.11L72.86,72.4L73.37,72.4L74.38,162.11L74.89,162.11L75.39,169.83L75.9,169.83L76.41,162.11L76.91,149.57L77.42,162.11L77.92,102.31L78.43,149.57L78.94,149.57L79.44,149.57L79.95,132.21L80.45,174.65L80.96,89.77L81.47,162.11L81.97,162.11L82.48,77.22L83.49,77.22L84,119.67L84.5,174.65L85.01,137.03L85.51,174.65L86.02,64.68L86.53,154.4L87.03,154.4L88.04,107.13L88.55,166.94L89.06,154.4L89.56,154.4L90.07,154.4L90.57,166.94L91.08,166.94L91.59,94.59L92.6,166.94L93.1,141.86L93.61,166.94L94.12,141.86L94.62,82.05L95.63,82.05L96.14,141.86L96.65,171.76L97.15,69.51L97.66,69.51L98.67,159.22L99.18,159.22L100.19,69.51L100.69,159.22L101.2,166.94L101.71,159.22L102.21,146.68L102.72,159.22L103.22,159.22L103.73,99.41L104.74,171.76L105.25,146.68L106.26,146.68L106.77,171.76L107.78,86.87L108.28,86.87L108.79,74.33L109.3,159.22L109.8,74.33L110.31,134.14L110.81,74.33L111.32,74.33L111.83,116.78L112.33,116.78L112.84,164.04L113.34,134.14L113.85,171.76L114.36,171.76L114.86,151.5L115.37,151.5L115.87,151.5L116.38,61.79L116.89,164.04L117.39,104.23L117.9,164.04L118.4,61.79L118.91,151.5L119.92,151.5L120.43,134.14L120.93,164.04L121.44,164.04L121.95,91.69L122.96,164.04L123.46,164.04L123.97,138.96L124.48,138.96L124.98,79.15L125.49,138.96L125.99,79.15L126.5,121.6L127.01,79.15L127.51,79.15L128.02,138.96L129.03,176.58L129.54,66.61L130.55,66.61L131.05,156.33L132.07,156.33L132.57,109.06L133.08,156.33L133.58,66.61L134.09,156.33L134.6,164.04L135.1,156.33L135.61,156.33L136.11,143.79L136.62,143.79L137.13,168.87L137.63,156.33L138.14,96.52L138.64,96.52L139.15,168.87L139.66,168.87L140.16,143.79L141.17,168.87L141.68,143.79L142.19,168.87L142.69,126.42L143.2,83.98L144.21,83.98L144.72,143.79L145.22,161.15L145.73,156.33L146.23,71.44L147.25,71.44L147.75,71.44L148.76,131.24L149.27,161.15L149.78,113.88L150.28,161.15L150.79,71.44L151.29,168.87L151.8,168.87L152.31,168.87L152.81,143.79L153.32,161.15L153.82,148.61L154.84,148.61L155.34,161.15L156.35,101.34L156.86,101.34L157.37,148.61L157.87,58.9L158.38,148.61L159.39,148.61L159.9,148.61L160.4,131.24L160.91,131.24L161.41,173.69L161.92,161.15L162.43,88.8L162.93,88.8L163.44,161.15L163.94,161.15L164.45,161.15L164.96,46.36L165.46,76.26L165.97,136.07L166.47,76.26L166.98,161.15L167.49,76.26L168.5,118.7L169,118.7L169.51,173.69L170.02,76.26L170.52,136.07L171.53,173.69L172.04,173.69L172.55,63.72L173.05,63.72L173.56,153.43L174.06,63.72L174.57,153.43L175.08,63.72L175.58,153.43L176.09,153.43L176.59,106.16L177.61,165.97L178.11,63.72L178.62,153.43L179.12,153.43L179.63,153.43L180.64,153.43L181.15,136.07L181.65,165.97L182.16,140.89L182.67,165.97L183.17,140.89L183.68,93.62L184.18,93.62L185.2,140.89L185.7,165.97L186.71,140.89L187.22,140.89L187.73,165.97L188.23,165.97L188.74,140.89L189.75,81.08L190.26,123.53L190.76,81.08L191.27,128.35L191.77,81.08L192.79,140.89L193.29,140.89L193.8,170.8L194.3,153.43L194.81,68.54L195.82,68.54L196.33,68.54L197.34,68.54L197.85,158.25L198.35,128.35L198.86,158.25L199.36,110.99L199.87,158.25L200.38,158.25L200.88,68.54L201.89,158.25L202.4,165.97L203.41,165.97L203.92,158.25L204.93,145.71L205.44,145.71L205.94,158.25L206.45,145.71L206.95,158.25L207.46,56L207.97,98.45L208.47,98.45L209.48,56L209.99,170.8L210.5,56L211,145.71L211.51,145.71L212.52,145.71L213.03,145.71L213.53,153.43L214.04,170.8L214.54,128.35L215.05,170.8L215.56,133.17L216.06,85.91L217.07,85.91L217.58,145.71L218.09,73.37L218.59,158.25L219.1,158.25L220.11,73.37L220.62,73.37L221.12,133.17L221.63,133.17L222.13,73.37L222.64,158.25L223.15,73.37L223.65,133.17L224.16,115.81L224.66,115.81L225.17,115.81L225.68,90.73L226.18,163.08L226.69,73.37L227.19,133.17L227.7,133.17L228.21,170.8L229.22,170.8L229.72,145.71L230.23,150.54L230.74,60.83L231.24,150.54L231.75,60.83L232.25,150.54L232.76,150.54L233.27,60.83L233.77,60.83L234.28,163.08L234.78,150.54L235.29,103.27L235.8,103.27L236.3,163.08L236.81,163.08L237.31,60.83L238.33,150.54L238.83,150.54L239.84,158.25L240.35,150.54L241.36,133.17L241.87,133.17L242.37,163.08L242.88,138L243.39,163.08L244.4,90.73L244.9,90.73L245.92,48.29L246.42,163.08L246.93,138L247.43,163.08L247.94,48.29L248.45,138L248.95,138L249.46,138L249.96,90.73L250.47,78.19L250.98,163.08L251.48,138L251.99,138L252.49,78.19L253.51,120.63L254.01,120.63L254.52,78.19L255.02,125.46L255.53,78.19L256.04,150.54L256.54,138L257.05,138L258.06,125.46L258.57,175.62L259.07,150.54L259.58,65.65L260.08,65.65L261.1,65.65L261.6,65.65L262.11,125.46L262.61,155.36L263.12,65.65L263.63,155.36L264.13,65.65L264.64,155.36L265.65,108.09L266.16,108.09L266.66,155.36L267.17,155.36L267.67,65.65L268.69,155.36L269.19,155.36L269.7,163.08L270.2,163.08L270.71,155.36L271.22,163.08L271.72,155.36L272.23,138L272.73,142.82L273.24,142.82L273.75,142.82L274.25,53.11L274.76,167.9L275.26,142.82L275.77,155.36L276.28,155.36L276.78,95.55L277.79,95.55L278.3,142.82L278.81,167.9L279.31,53.11L279.82,167.9L280.32,155.36L280.83,142.82L281.34,142.82L282.35,100.38L282.85,167.9L283.36,142.82L283.87,142.82L284.37,142.82L284.88,167.9L285.38,167.9L285.89,125.46L286.9,83.01L287.41,130.28L287.91,83.01L288.42,155.36L288.93,83.01L289.94,142.82L290.44,142.82L290.95,160.18L291.46,155.36L291.96,155.36L292.97,70.47L293.48,70.47L294.49,155.36L295,70.47L295.5,130.28L296.01,70.47L296.52,70.47L297.53,70.47L298.03,130.28L299.05,160.18L299.55,112.92L300.56,112.92L301.07,160.18L302.08,70.47L302.59,70.47L303.09,167.9L303.6,130.28L304.11,167.9L304.61,117.74L305.12,167.9L305.62,167.9L306.13,142.82L306.64,142.82L307.14,160.18L307.65,57.93L308.15,147.64L308.66,147.64L309.67,147.64L310.18,147.64L310.68,117.74L311.19,160.18L311.7,57.93L312.2,160.18L312.71,57.93L313.21,100.38L314.23,100.38L314.73,57.93L315.24,147.64L315.74,160.18L316.25,57.93L317.26,147.64L317.77,147.64L318.78,147.64L319.29,147.64L319.79,155.36L320.3,147.64L320.8,155.36L321.31,130.28L321.82,130.28L322.32,130.28L322.83,57.93L323.33,172.72L323.84,135.1L324.35,160.18L324.85,160.18L325.36,87.84L326.37,87.84L326.88,147.64L327.38,160.18L327.89,45.39L328.39,160.18L328.9,87.84L329.41,160.18L329.91,160.18L330.42,45.39L330.92,45.39L331.43,75.3L331.94,135.1L332.44,135.1L332.95,135.1L333.45,75.3L333.96,75.3L334.47,160.18L335.48,75.3L335.98,135.1L336.49,75.3L337,45.39L337.5,117.74L338.51,117.74L339.02,92.66L339.53,172.72L340.03,122.56L340.54,75.3L341.55,135.1L342.06,135.1L343.07,122.56L343.57,172.72L344.08,122.56L344.59,172.72L345.09,147.64L345.6,62.76L346.1,62.76L346.61,62.76L347.12,147.64L347.62,152.47L348.13,62.76L349.14,62.76L349.65,152.47L350.66,62.76L351.16,62.76L351.67,152.47L352.18,62.76L352.68,152.47L353.19,122.56L353.69,105.2L354.2,105.2L355.21,20.31L355.72,165.01L356.22,152.47L356.73,62.76L357.24,62.76L357.74,152.47L358.25,152.47L358.75,152.47L359.26,122.56L359.77,152.47L360.27,160.18L360.78,152.47L361.28,160.18L361.79,152.47L362.8,135.1L363.31,135.1L363.81,165.01L364.32,139.93L364.83,139.93L365.84,165.01L366.34,165.01L366.85,139.93L367.36,139.93L367.86,92.66L368.37,152.47L368.87,92.66L369.38,50.21L369.89,92.66L370.39,92.66L370.9,139.93L371.91,165.01L372.42,50.21L372.92,165.01L373.43,165.01L373.93,139.93L374.95,139.93L375.45,92.66L375.96,165.01L376.46,97.48L376.97,165.01L377.48,139.93L377.98,139.93L378.49,139.93L379.5,50.21L380.01,80.12L380.51,165.01L381.02,122.56L381.52,122.56L382.03,80.12L382.54,80.12L383.04,127.39L384.05,80.12L384.56,152.47L385.07,80.12L385.57,37.67L386.08,139.93L387.09,139.93L387.6,127.39L388.1,169.83L388.61,152.47L389.11,152.47L390.13,67.58L390.63,67.58L391.64,37.67L392.15,67.58L392.66,152.47L393.16,67.58L393.67,127.39L394.17,67.58L394.68,67.58L395.19,67.58L396.2,157.29L396.7,67.58L397.21,127.39L397.72,127.39L398.22,157.29L399.23,110.02L399.74,110.02L400.25,157.29L400.75,110.02L401.26,157.29L401.76,84.94L402.27,67.58L402.78,67.58L403.79,114.85L404.29,157.29L404.8,127.39L405.31,165.01L405.81,165.01L406.82,165.01L407.33,165.01L407.84,114.85L408.34,157.29L408.85,139.93L409.35,157.29L409.86,55.04L410.37,144.75L411.38,144.75L411.88,55.04L412.39,157.29L412.9,144.75L413.4,144.75L414.41,157.29L414.92,157.29L415.43,55.04L415.93,55.04L416.44,97.48L416.94,55.04L417.45,97.48L417.96,144.75L418.46,97.48L418.97,97.48L419.47,55.04L420.49,169.83L420.99,157.29L421.5,55.04L422,55.04L422.51,144.75L423.52,144.75L424.03,102.31L424.53,144.75L425.04,144.75L425.55,144.75L426.56,144.75L427.06,144.75L427.57,152.47L428.08,152.47L428.58,169.83L429.09,127.39L429.59,127.39L430.1,127.39L430.61,169.83L431.11,169.83L431.62,132.21L432.63,84.94L433.14,157.29L433.64,84.94L434.15,42.5L434.65,84.94L435.67,144.75L436.17,144.75L436.68,72.4L437.18,42.5L437.69,157.29L438.7,157.29L439.21,157.29L440.22,12.59L440.73,72.4L441.23,42.5L441.74,72.4L442.24,157.29L442.75,132.21L443.26,132.21L443.76,132.21L444.27,42.5L444.77,72.4L445.28,72.4L445.79,157.29L446.29,157.29L446.8,72.4L447.81,132.21L448.32,132.21L448.82,114.85L449.33,42.5L449.83,114.85L450.34,139.93L450.85,114.85L451.35,114.85L451.86,89.77L452.36,89.77L452.87,162.11L453.38,119.67L453.88,72.4L454.39,72.4L454.89,132.21L455.4,132.21L455.91,132.21L456.41,72.4L456.92,169.83L457.42,119.67L457.93,169.83L458.44,132.21L458.94,169.83L459.95,144.75L460.46,144.75L460.97,149.57L461.47,59.86L461.98,59.86L462.99,149.57L463.5,149.57L464,59.86L464.51,59.86L465.01,149.57L465.52,59.86L466.03,149.57L466.53,119.67L467.04,59.86L467.54,59.86L468.05,59.86L468.56,72.4L469.06,162.11L469.57,59.86L470.07,149.57L470.58,149.57L471.09,102.31L472.1,102.31L472.6,59.86L473.11,162.11L473.62,17.42L474.12,162.11L474.63,102.31L475.13,59.86L475.64,59.86L476.65,149.57L477.16,149.57L478.17,149.57L478.68,149.57L479.69,149.57L480.19,157.29L481.21,149.57L481.71,157.29L482.22,149.57L482.72,157.29L483.23,132.21L484.24,132.21L484.75,59.86L485.25,162.11L485.76,137.03L486.27,137.03L487.28,162.11L487.78,162.11L488.8,47.32L489.3,89.77L489.81,137.03L490.31,89.77L490.82,149.57L491.33,89.77L491.83,89.77L492.34,47.32L493.35,162.11L493.86,89.77L494.36,137.03L494.87,137.03L495.37,162.11L496.39,47.32L496.89,47.32L497.4,137.03L497.9,162.11L498.41,137.03L498.92,149.57L499.42,137.03L499.93,137.03L500.43,89.77L500.94,89.77L501.45,77.22L501.95,94.59L502.46,162.11L502.96,162.11L503.47,137.03L503.98,137.03L504.48,137.03L505.49,77.22L506,47.32L506.51,77.22L507.01,144.75L507.52,119.67L508.53,119.67L509.04,94.59L509.54,77.22L510.05,77.22L510.55,124.49L511.57,77.22L512.07,77.22L512.58,149.57L513.08,149.57L513.59,137.03L514.1,34.78L514.6,137.03L515.11,124.49L515.61,137.03L516.12,137.03L516.63,124.49L517.64,174.65L518.14,149.57L519.16,149.57L519.66,64.68L520.67,64.68L521.18,149.57L521.69,64.68L522.19,34.78L522.7,64.68L523.71,64.68L524.22,64.68L524.72,124.49L525.23,124.49L525.73,154.4L526.24,64.68L526.75,64.68L527.25,64.68L527.76,154.4L528.26,154.4L528.77,64.68L529.78,154.4L530.29,124.49L530.79,154.4L531.3,94.59L531.81,107.13L532.82,107.13L533.32,22.24L533.83,154.4L534.34,107.13L534.84,154.4L535.85,64.68L536.36,64.68L537.37,111.95L537.88,154.4L538.38,111.95L538.89,154.4L539.4,124.49L539.9,162.11L540.41,162.11L540.91,162.11L541.42,22.24L541.93,154.4L542.43,162.11L543.44,162.11L543.95,154.4L544.96,137.03L545.47,137.03L545.97,141.86L546.48,52.14L546.99,141.86L547.49,52.14L548,141.86L548.5,141.86L549.01,52.14L549.52,52.14L550.02,166.94L550.53,141.86L551.03,141.86L551.54,141.86L552.05,154.4L552.55,154.4L553.06,154.4L553.56,111.95L554.07,94.59L554.58,52.14L555.08,94.59L555.59,154.4L556.09,94.59L557.11,141.86L557.61,141.86L558.12,166.94L558.62,94.59L559.13,52.14L560.14,166.94L560.65,166.94L561.15,154.4L561.66,154.4L562.17,141.86L562.67,52.14L563.18,141.86L563.68,94.59L564.19,141.86L564.7,141.86L565.2,99.41L566.21,166.94L566.72,141.86L567.73,141.86L568.24,141.86L569.25,141.86L569.76,52.14L570.26,166.94L570.77,149.57L571.27,166.94L571.78,149.57L572.29,124.49L572.79,124.49L573.8,124.49L574.31,82.05L574.82,166.94L575.32,129.32L575.83,129.32L576.33,82.05L576.84,82.05L577.35,154.4L578.36,82.05L578.86,39.6L579.37,82.05L579.88,129.32L580.38,141.86L581.39,141.86L581.9,129.32L582.41,159.22L582.91,39.6L583.42,154.4L584.43,154.4L584.94,154.4L585.95,129.32L586.45,69.51L586.96,9.7L587.47,69.51L587.97,39.6L588.48,69.51L588.98,69.51L589.49,154.4L590.5,69.51L591.01,129.32L592.02,129.32L592.53,69.51L593.54,69.51L594.04,69.51L595.06,154.4L595.56,69.51L596.07,129.32L596.57,129.32L597.08,129.32L598.09,99.41L598.6,159.22L599.1,39.6L599.61,111.95L600.12,111.95L601.13,111.95L601.63,111.95L602.14,137.03L602.65,159.22L603.15,86.87L603.66,159.22L604.16,69.51L604.67,69.51L605.68,69.51L606.19,116.78L606.69,166.94L607.2,129.32L607.71,129.32L608.72,166.94L609.22,166.94L609.73,116.78L610.24,116.78L610.74,166.94L611.25,129.32L611.75,166.94L612.26,116.78L612.77,141.86L613.27,141.86L613.78,141.86L614.28,27.06L614.79,159.22L615.3,56.97L616.31,56.97L616.81,146.68L617.83,146.68L618.33,56.97L618.84,146.68L619.34,56.97L619.85,146.68L620.36,56.97L620.86,146.68L621.37,146.68L621.87,116.78L622.38,116.78L622.89,159.22L623.39,56.97L623.9,56.97L624.4,56.97L624.91,159.22L625.42,159.22L625.92,56.97L626.93,99.41L627.44,146.68L627.95,99.41L628.45,116.78L628.96,99.41L629.97,56.97L630.48,56.97L630.98,146.68L631.49,14.52L631.99,159.22L633.01,56.97L633.51,56.97L634.52,99.41L635.03,146.68L636.04,146.68L636.55,104.23L637.05,146.68L637.56,146.68L638.07,146.68L638.57,14.52L639.08,146.68L639.58,146.68L640.09,154.4L640.6,154.4L641.1,146.68L642.11,154.4L642.62,154.4L643.13,129.32L643.63,154.4L644.14,129.32L644.64,104.23L645.15,129.32L645.66,129.32L646.16,56.97L646.67,56.97L647.17,171.76L647.68,134.14L648.19,134.14L648.69,134.14L649.2,159.22L649.7,159.22L650.21,159.22L650.72,44.43L651.22,86.87L651.73,44.43L652.23,86.87L652.74,134.14L653.25,86.87L654.26,146.68L654.76,146.68L655.27,159.22L655.78,86.87L656.28,44.43L657.29,159.22L657.8,159.22L658.31,86.87L658.81,86.87L659.32,159.22L659.82,134.14L660.33,159.22L660.84,14.52L661.34,44.43L661.85,44.43L662.35,44.43L662.86,86.87L663.37,74.33L663.87,159.22L664.38,134.14L664.88,134.14L665.39,134.14L666.4,134.14L666.91,44.43L667.41,74.33L667.92,86.87L668.43,74.33L668.93,134.14L669.44,159.22L669.94,159.22L670.96,134.14L671.46,74.33L671.97,134.14L672.47,134.14L672.98,134.14L673.49,74.33L673.99,74.33L674.5,44.43L675.51,116.78L676.02,141.86L676.52,116.78L677.03,159.22L677.53,116.78L678.55,91.69L679.05,91.69L679.56,171.76L680.06,74.33L680.57,121.6L681.58,74.33L682.09,74.33L683.1,31.89L683.61,134.14L684.11,146.68L684.62,134.14L685.12,74.33L685.63,134.14L686.14,134.14L686.64,121.6L687.65,171.76L688.16,134.14L688.67,121.6L689.17,121.6L689.68,171.76L690.69,146.68L691.2,146.68L691.7,61.79L692.21,146.68L692.71,61.79L693.22,74.33L693.73,61.79L694.23,61.79L694.74,146.68L695.24,146.68L695.75,151.5L696.26,31.89L696.76,61.79L697.27,61.79L698.28,61.79L698.79,61.79L699.29,91.69L699.8,151.5L700.3,121.6L700.81,151.5L701.32,121.6L701.82,61.79L702.83,61.79L703.34,74.33L703.85,151.5L704.35,151.5L704.86,61.79L705.87,151.5L706.38,151.5L706.88,121.6L707.39,121.6L707.89,104.23L708.4,91.69L708.91,104.23L709.41,61.79L709.92,104.23L710.42,104.23L710.93,19.35L711.94,164.04L712.45,104.23L712.95,151.5L713.46,151.5L713.97,61.79L714.98,61.79L715.48,151.5L716.5,109.06L717,151.5L717.51,61.79L718.01,151.5L718.52,151.5L719.03,121.6L719.53,121.6L720.04,151.5L720.54,159.22L721.05,159.22L721.56,159.22L722.06,151.5L722.57,151.5L723.07,159.22L724.09,151.5L724.59,159.22L725.1,151.5L725.6,109.06L726.11,134.14L727.12,134.14L727.63,61.79L728.13,164.04L728.64,49.25L729.15,138.96L730.16,138.96L730.66,138.96L731.68,134.14L732.18,164.04L732.69,49.25L733.19,164.04L733.7,49.25L734.21,138.96L734.71,138.96L735.22,138.96L735.72,49.25L736.23,91.69L736.74,151.5L737.75,151.5L738.25,91.69L739.27,49.25L739.77,49.25L740.28,91.69L740.78,151.5L741.29,91.69L741.8,49.25L742.3,138.96L742.81,138.96L743.82,19.35L744.33,164.04L744.83,91.69L745.34,49.25L745.84,49.25L746.35,164.04L746.86,164.04L747.36,164.04L747.87,91.69L748.37,138.96L748.88,151.5L749.39,138.96L749.89,49.25L750.4,138.96L751.41,91.69L751.92,91.69L752.42,164.04L752.93,138.96L753.43,96.52L754.45,164.04L754.95,164.04L755.46,138.96L755.96,138.96L756.47,138.96L757.48,138.96L757.99,138.96L759,138.96L759.51,49.25L760.52,79.15L761.02,146.68L761.53,164.04L762.04,164.04L762.54,121.6L763.55,121.6L764.06,96.52L764.57,79.15L765.07,121.6L765.58,79.15L766.08,49.25L766.59,126.42L767.1,126.42L768.11,36.71L768.61,79.15L769.63,151.5L770.13,151.5L770.64,79.15L771.14,79.15L771.65,36.71L772.66,138.96L773.17,126.42L773.67,138.96L774.18,126.42L774.69,138.96L775.7,126.42L776.2,126.42L776.71,168.87L777.22,36.71L777.72,151.5L778.73,151.5L779.24,151.5L780.25,79.15L780.76,66.61L781.26,126.42L781.77,66.61L782.28,151.5L782.78,66.61L783.29,66.61L783.79,36.71L784.81,66.61L785.31,66.61L785.82,151.5L786.32,151.5L786.83,66.61L787.84,126.42L788.35,126.42L788.85,66.61L789.36,126.42L789.87,66.61L790.37,36.71L790.88,66.61L791.38,66.61L792.4,126.42L792.9,156.33L793.41,151.5L793.91,66.61L794.42,66.61L794.93,126.42L795.43,126.42L795.94,126.42L796.95,156.33L797.46,96.52L797.96,156.33L798.47,66.61L798.97,109.06L799.99,109.06L800.49,24.17L801,156.33L801.5,109.06L802.01,109.06L803.02,156.33L803.53,156.33L804.03,83.98L804.54,83.98L805.05,66.61L806.06,66.61L806.56,113.88L807.07,66.61L807.58,66.61L808.08,113.88L809.09,156.33L809.6,126.42L810.61,126.42L811.12,164.04L812.13,164.04L812.64,24.17L813.14,164.04L813.65,113.88L814.15,164.04L815.17,164.04L815.67,164.04L816.18,113.88L816.68,113.88L817.19,156.33L817.7,138.96L818.2,138.96L818.71,138.96L819.21,156.33L819.72,156.33L820.23,54.07L821.24,143.79L821.74,54.07L822.25,143.79L822.76,113.88L823.26,143.79L824.27,54.07L824.78,54.07L825.29,156.33L825.79,54.07L826.3,143.79L827.31,143.79L827.82,143.79L828.83,83.98L829.33,156.33L829.84,113.88L830.35,156.33L830.85,113.88L831.36,54.07L831.86,54.07L832.37,54.07L833.38,96.52L833.89,156.33L834.39,54.07L834.9,54.07L835.41,96.52L836.42,143.79L836.92,143.79L837.43,96.52L837.94,113.88L838.44,96.52L838.95,143.79L839.45,54.07L839.96,54.07L840.97,113.88L841.48,168.87L841.98,11.63L842.49,156.33L843,156.33L843.5,54.07L844.01,54.07L844.51,54.07L845.02,143.79L845.53,143.79L846.03,96.52L846.54,143.79L847.04,54.07L847.55,143.79L848.56,101.34L849.07,101.34L849.57,143.79L850.08,143.79L850.59,143.79L851.6,143.79L852.1,143.79L853.12,143.79L853.62,143.79L854.13,151.5L854.63,143.79L855.14,54.07L855.65,151.5L856.15,151.5L856.66,151.5L857.16,11.63L857.67,168.87L858.18,151.5L858.68,126.42L859.19,126.42L859.69,126.42L860.71,126.42L861.21,126.42L861.72,168.87L862.22,54.07L862.73,168.87L863.24,41.53L863.74,131.24L864.25,131.24L865.26,41.53L865.77,83.98L866.27,156.33L866.78,156.33L867.28,156.33L867.79,83.98L868.3,83.98L868.8,41.53L869.81,83.98L870.32,131.24L870.83,83.98L871.33,131.24L871.84,143.79L872.85,143.79L873.36,131.24L873.86,71.44L874.37,83.98L874.87,41.53L875.89,156.33L876.39,156.33L877.4,83.98L877.91,156.33L878.42,83.98L878.92,156.33L879.43,131.24L879.93,156.33L880.44,156.33L880.95,11.63L881.96,71.44L882.46,41.53L883.48,41.53L883.98,71.44L884.99,156.33L885.5,156.33L886.01,131.24L886.51,131.24L887.02,131.24L887.52,143.79L888.03,131.24L888.54,131.24L889.04,41.53L889.55,41.53L890.05,71.44L890.56,83.98L891.07,71.44L891.57,71.44L892.08,156.33L892.58,156.33L893.09,156.33L893.6,41.53L894.1,71.44L894.61,131.24L895.11,71.44L895.62,131.24L896.13,131.24L897.14,131.24L897.64,101.34L898.15,113.88L898.66,71.44L899.16,41.53L900.17,113.88L900.68,113.88L901.19,138.96L901.69,138.96L902.2,113.88L902.7,156.33L903.21,113.88L903.72,138.96L904.22,88.8L904.73,88.8L905.23,88.8L906.25,161.15L906.75,71.44L907.26,118.7L907.76,118.7L908.27,71.44L909.28,71.44L909.79,118.7L910.29,131.24L910.8,28.99L911.31,131.24L911.81,143.79L912.32,131.24L912.82,131.24L913.33,71.44L913.84,71.44L914.34,168.87L914.85,131.24L915.35,118.7L915.86,118.7L916.37,168.87L916.87,168.87L917.38,131.24L918.39,168.87L918.9,118.7L919.4,168.87L919.91,28.99L920.41,143.79L921.43,143.79L921.93,28.99L922.44,148.61L922.94,143.79L923.45,58.9L924.46,58.9L924.97,58.9L925.98,118.7L926.49,148.61L926.99,143.79L927.5,148.61L928,58.9L929.02,58.9L929.52,58.9L930.03,28.99L930.53,148.61L931.04,58.9L932.05,58.9L932.56,148.61L933.57,118.7L934.08,118.7L934.58,58.9L935.09,118.7L935.59,58.9L936.61,58.9L937.11,58.9L937.62,71.44L938.12,71.44L938.63,161.15L939.14,148.61L939.64,58.9L940.15,58.9L940.65,148.61L941.16,148.61L941.67,148.61L942.17,118.7L942.68,101.34L943.18,118.7L943.69,101.34L944.2,148.61L944.7,101.34L945.71,58.9L946.22,58.9L946.73,161.15L947.23,101.34L947.74,16.45L948.75,161.15L949.26,161.15L949.76,101.34L950.27,101.34L950.77,58.9L951.28,148.61L951.79,58.9L952.29,101.34L952.8,58.9L953.3,58.9L953.81,148.61L954.82,148.61L955.33,106.16L955.83,148.61L956.34,148.61L956.85,148.61L957.86,148.61L958.36,16.45L958.87,148.61L959.38,118.7L959.88,148.61L960.39,118.7L960.89,156.33L961.4,156.33L962.41,58.9L962.92,148.61L963.93,156.33L964.44,156.33L964.94,148.61L965.45,148.61L965.95,156.33L966.97,131.24L967.47,106.16L967.98,131.24L968.48,16.45L968.99,131.24L970,58.9L970.51,58.9L971.01,161.15L971.52,46.36L972.03,136.07L973.04,136.07L973.54,136.07L974.56,136.07L975.06,161.15L975.57,131.24L976.07,161.15L976.58,46.36L977.09,161.15L977.59,161.15L978.1,46.36L979.11,88.8L979.62,136.07L980.63,136.07L981.13,88.8L982.15,148.61L982.65,148.61L983.16,88.8L983.66,148.61L984.17,88.8L984.68,106.16L985.18,46.36L985.69,46.36L986.7,16.45L987.21,161.15L987.71,148.61L988.22,88.8L988.72,88.8L989.23,136.07L989.74,136.07L990.24,136.07L990.75,106.16L991.25,161.15L991.76,16.45L992.27,161.15L992.77,106.16L993.28,46.36L994.29,46.36L994.8,88.8L995.3,136.07L995.81,161.15L996.31,161.15L997.33,136.07L997.83,136.07L998.34,148.61L998.84,148.61L999.35,136.07L999.86,46.36L1000.36,136.07L1000.87,46.36L1001.37,88.8L1001.88,88.8L1002.39,88.8L1002.89,136.07L1003.4,76.26L1003.9,136.07L1004.41,93.62L1004.92,93.62L1005.42,161.15L1006.43,161.15L1006.94,136.07L1007.95,136.07L1008.46,136.07L1009.47,136.07L1009.98,136.07L1010.99,136.07" style="stroke-width: 2px; stroke: #1f77b4; stroke-opacity: 1; fill: none;"></path></g><g class="trace scatter" style="stroke-miterlimit: 2; opacity: 1;"><path class="js-line" d="M0,175.62L10.12,160.18L20.24,148.61L30.36,147.64L40.48,139.93L50.6,139.93L60.72,136.07L70.84,136.07L80.96,135.1L91.08,122.56L101.2,132.21L111.32,136.07L121.44,117.74L131.56,144.75L141.68,116.78L151.8,142.82L161.92,120.63L172.04,128.35L182.16,130.28L192.28,113.88L202.4,132.21L212.52,124.49L222.64,127.39L232.76,129.32L242.88,120.63L253,111.95L263.12,133.17L273.24,132.21L283.36,131.24L293.48,109.06L303.6,133.17L313.72,125.46L323.84,114.85L333.96,116.78L344.08,108.09L354.2,131.24L364.32,129.32L374.44,120.63L384.56,109.06L394.68,110.99L404.8,140.89L414.92,105.2L425.04,132.21L435.16,108.09L445.28,109.06L455.4,123.53L465.52,99.41L475.64,136.07L485.76,118.7L495.88,121.6L506,108.09L516.12,106.16L526.24,107.13L536.36,133.17L546.48,114.85L556.6,123.53L566.72,131.24L576.84,122.56L586.96,93.62L597.08,111.95L607.2,123.53L617.32,108.09L627.44,106.16L637.56,129.32L647.68,111.95L657.8,102.31L667.92,113.88L678.04,110.99L688.16,108.09L698.28,105.2L708.4,102.31L718.52,142.82L728.64,120.63L738.76,105.2L748.88,130.28L759,104.23L769.12,116.78L779.24,94.59L789.36,105.2L799.48,102.31L809.6,139.93L819.72,114.85L829.84,97.48L839.96,105.2L850.08,134.14L860.2,107.13L870.32,119.67L880.44,89.77L890.56,101.34L900.68,110.99L910.8,124.49L920.92,94.59L931.04,92.66L941.16,105.2L951.28,121.6L961.4,126.42L971.52,118.7L981.64,107.13L991.76,108.09L1001.88,128.35L1012,128.35" style="stroke-width: 2px; stroke: #ff7f0e; stroke-opacity: 1; fill: none;"></path></g><g class="trace scatter" style="stroke-miterlimit: 2; opacity: 1;"><g class="points"></g></g><g class="trace scatter" style="stroke-miterlimit: 2; opacity: 1;"><g class="points"></g></g></svg><g></g><path class="crisp" d="M77,296.5h1018M77,97.5h1018" style="fill: none; stroke-width: 1px; stroke: #000000; stroke-opacity: 1;"></path><path class="crisp" d="M77.5,98v198M1094.5,98v198" stroke-width="1px" style="fill: none; stroke: #000000; stroke-opacity: 1;"></path><g></g><g><path class="xtick ticks crisp" d="M80,297v5" transform="translate(252.49,0)" style="stroke: #000000; stroke-opacity: 1; stroke-width: 1px;"></path><path class="xtick ticks crisp" d="M80,297v5" transform="translate(505.49,0)" style="stroke: #000000; stroke-opacity: 1; stroke-width: 1px;"></path><path class="xtick ticks crisp" d="M80,297v5" transform="translate(758.49,0)" style="stroke: #000000; stroke-opacity: 1; stroke-width: 1px;"></path><path class="xtick ticks crisp" d="M80,297v5" transform="translate(1011.49,0)" style="stroke: #000000; stroke-opacity: 1; stroke-width: 1px;"></path><text class="xtick" x="80" y="315" transform="translate(252.49,0)" text-anchor="middle" style="font-family: 'Open sans', verdana, arial, sans-serif; font-size: 12px; fill: #000000; fill-opacity: 1;"><tspan class="nl">500</tspan></text><text class="xtick" x="80" y="315" transform="translate(505.49,0)" text-anchor="middle" style="font-family: 'Open sans', verdana, arial, sans-serif; font-size: 12px; fill: #000000; fill-opacity: 1;"><tspan class="nl">1000</tspan></text><text class="xtick" x="80" y="315" transform="translate(758.49,0)" text-anchor="middle" style="font-family: 'Open sans', verdana, arial, sans-serif; font-size: 12px; fill: #000000; fill-opacity: 1;"><tspan class="nl">1500</tspan></text><text class="xtick" x="80" y="315" transform="translate(1011.49,0)" text-anchor="middle" style="font-family: 'Open sans', verdana, arial, sans-serif; font-size: 12px; fill: #000000; fill-opacity: 1;"><tspan class="nl">2000</tspan></text><path class="ytick ticks crisp" d="M77,100h-5" transform="translate(0,184.3)" style="stroke: #000000; stroke-opacity: 1; stroke-width: 1px;"></path><path class="ytick ticks crisp" d="M77,100h-5" transform="translate(0,136.07)" style="stroke: #000000; stroke-opacity: 1; stroke-width: 1px;"></path><path class="ytick ticks crisp" d="M77,100h-5" transform="translate(0,87.84)" style="stroke: #000000; stroke-opacity: 1; stroke-width: 1px;"></path><path class="ytick ticks crisp" d="M77,100h-5" transform="translate(0,39.6)" style="stroke: #000000; stroke-opacity: 1; stroke-width: 1px;"></path><text class="ytick" x="71" y="106" transform="translate(0,184.3)" text-anchor="end" style="font-family: 'Open sans', verdana, arial, sans-serif; font-size: 12px; fill: #000000; fill-opacity: 1;"><tspan class="nl">0</tspan></text><text class="ytick" x="71" y="106" transform="translate(0,136.07)" text-anchor="end" style="font-family: 'Open sans', verdana, arial, sans-serif; font-size: 12px; fill: #000000; fill-opacity: 1;"><tspan class="nl">50</tspan></text><text class="ytick" x="71" y="106" transform="translate(0,87.84)" text-anchor="end" style="font-family: 'Open sans', verdana, arial, sans-serif; font-size: 12px; fill: #000000; fill-opacity: 1;"><tspan class="nl">100</tspan></text><text class="ytick" x="71" y="106" transform="translate(0,39.6)" text-anchor="end" style="font-family: 'Open sans', verdana, arial, sans-serif; font-size: 12px; fill: #000000; fill-opacity: 1;"><tspan class="nl">150</tspan></text></g><g></g></g><g><rect class="drag nsewdrag cursor-crosshair" x="80" y="100" width="1012" height="194" data-subplot="xy" style="fill: #000000; opacity: 0; stroke-width: 0px;"></rect><rect class="drag nwdrag cursor-nw-resize" x="60" y="80" width="20" height="20" data-subplot="xy" style="fill: #000000; opacity: 0; stroke-width: 0px;"></rect><rect class="drag nedrag cursor-ne-resize" x="1092" y="80" width="20" height="20" data-subplot="xy" style="fill: #000000; opacity: 0; stroke-width: 0px;"></rect><rect class="drag swdrag cursor-sw-resize" x="60" y="294" width="20" height="20" data-subplot="xy" style="fill: #000000; opacity: 0; stroke-width: 0px;"></rect><rect class="drag sedrag cursor-se-resize" x="1092" y="294" width="20" height="20" data-subplot="xy" style="fill: #000000; opacity: 0; stroke-width: 0px;"></rect><rect class="drag ewdrag cursor-ew-resize" x="181.2" y="296.5" width="809.6" height="20" data-subplot="xy" style="fill: #000000; opacity: 0; stroke-width: 0px;"></rect><rect class="drag wdrag cursor-w-resize" x="80" y="296.5" width="101.2" height="20" data-subplot="xy" style="fill: #000000; opacity: 0; stroke-width: 0px;"></rect><rect class="drag edrag cursor-e-resize" x="990.8000000000001" y="296.5" width="101.2" height="20" data-subplot="xy" style="fill: #000000; opacity: 0; stroke-width: 0px;"></rect><rect class="drag nsdrag cursor-ns-resize" x="57.5" y="119.4" width="20" height="155.20000000000002" data-subplot="xy" style="fill: #000000; opacity: 0; stroke-width: 0px;"></rect><rect class="drag sdrag cursor-s-resize" x="57.5" y="274.6" width="20" height="19.400000000000002" data-subplot="xy" style="fill: #000000; opacity: 0; stroke-width: 0px;"></rect><rect class="drag ndrag cursor-n-resize" x="57.5" y="100" width="20" height="19.400000000000002" data-subplot="xy" style="fill: #000000; opacity: 0; stroke-width: 0px;"></rect></g><g class="infolayer"><svg class="legend" x="869" y="104" width="203" height="52"><rect class="bg" style="stroke: #000000; stroke-opacity: 1; fill: #ffffff; opacity: 1; stroke-width: 1px;" x="0.5" y="0.5" width="202" height="51"></rect><g class="traces" transform="translate(1,14.5)"><g class="legendfill"></g><g class="legendlines"><path d="M5,0h30" style="stroke-width: 2px; stroke: #ffa500; stroke-opacity: 1; fill: none;"></path></g><g class="legendsymbols" style="opacity: 1;"><g class="legendpoints"><path class="scatterpts" transform="translate(20,0)" d="M3,0A3,3 0 1,1 0,-3A3,3 0 0,1 3,0Z" style="opacity: 1; stroke-width: 0px; fill: #ffa500; fill-opacity: 1;"></path></g></g><text class="legendtext text-2" x="40" y="4.5" xml:space="preserve" style="text-anchor: start; font-family: 'Open sans', verdana, arial, sans-serif; font-size: 12px; fill: #000000; opacity: 1; pointer-events: all;">Collatz stoping times</text></g><g class="traces" transform="translate(1,34.5)"><g class="legendfill"></g><g class="legendlines"><path d="M5,0h30" style="stroke-width: 3px; stroke: #808080; stroke-opacity: 1; fill: none;"></path></g><g class="legendsymbols" style="opacity: 1;"><g class="legendpoints"><path class="scatterpts" transform="translate(20,0)" d="M3,0A3,3 0 1,1 0,-3A3,3 0 0,1 3,0Z" style="opacity: 1; stroke-width: 0px; fill: #808080; fill-opacity: 1;"></path></g></g><text class="legendtext text-3" x="40" y="4.5" xml:space="preserve" style="text-anchor: start; font-family: 'Open sans', verdana, arial, sans-serif; font-size: 12px; fill: #000000; opacity: 1; pointer-events: all;">Stoping times averages (20)</text></g></svg></g><g class="hoverlayer"></g></svg>
