<svg xmlns="http://www.w3.org/2000/svg" xmlns:xlink="http://www.w3.org/1999/xlink" xml:space="preserve" width="1172" height="374"><rect x="0" y="0" width="1172" height="374" style="fill: #ffffff; fill-opacity: 1;"></rect><g class="subplot xy"><rect x="78" y="98" width="1016" height="198" style="stroke-width: 0px; fill: #ffffff; fill-opacity: 1;"></rect><g><path class="xgrid crisp" d="M80,100v194" transform="translate(156.47,0)" style="stroke: #dddddd; stroke-opacity: 1; stroke-width: 1px;"></path><path class="xgrid crisp" d="M80,100v194" transform="translate(314.51,0)" style="stroke: #dddddd; stroke-opacity: 1; stroke-width: 1px;"></path><path class="xgrid crisp" d="M80,100v194" transform="translate(472.56,0)" style="stroke: #dddddd; stroke-opacity: 1; stroke-width: 1px;"></path><path class="xgrid crisp" d="M80,100v194" transform="translate(630.61,0)" style="stroke: #dddddd; stroke-opacity: 1; stroke-width: 1px;"></path><path class="xgrid crisp" d="M80,100v194" transform="translate(788.65,0)" style="stroke: #dddddd; stroke-opacity: 1; stroke-width: 1px;"></path><path class="xgrid crisp" d="M80,100v194" transform="translate(946.7,0)" style="stroke: #dddddd; stroke-opacity: 1; stroke-width: 1px;"></path><path class="ygrid crisp" d="M80,100h1012" transform="translate(0,131.91)" style="stroke: #dddddd; stroke-opacity: 1; stroke-width: 1px;"></path><path class="ygrid crisp" d="M80,100h1012" transform="translate(0,80.21)" style="stroke: #dddddd; stroke-opacity: 1; stroke-width: 1px;"></path><path class="ygrid crisp" d="M80,100h1012" transform="translate(0,28.51)" style="stroke: #dddddd; stroke-opacity: 1; stroke-width: 1px;"></path></g><g></g><g><path class="yzl zl crisp" d="M80,100h1012" transform="translate(0,183.6)" style="stroke: #000000; stroke-opacity: 1; stroke-width: 1px;"></path></g><g></g><svg preserveAspectRatio="none" x="80" y="100" width="1012" height="194" style="fill: none;" viewBox="0 0 1012 194"><g class="errorbars" style="stroke: #000000;"></g><g class="errorbars" style="stroke: #000000;"></g><g class="errorbars" style="stroke: #000000;"></g><g class="errorbars" style="stroke: #000000;"></g><g class="trace scatter" style="stroke-miterlimit: 2; opacity: 1;"><path class="js-line" d="M0,183.6L1.58,182.57L3.16,176.37L4.74,181.54L6.32,178.43L7.9,175.33L9.48,167.06L11.06,180.5L12.64,163.96L14.22,177.4L15.8,169.13L17.39,174.3L18.97,174.3L20.55,166.03L22.13,166.03L23.71,179.47L25.29,171.2L26.87,162.92L28.45,162.92L30.03,176.37L31.61,176.37L33.19,168.09L34.77,168.09L36.35,173.26L37.93,159.82L39.51,173.26L41.09,68.84L42.67,164.99L44.25,164.99L45.83,164.99L47.41,74.01L48.99,178.43L50.58,156.72L52.16,170.16L53.74,170.16L55.32,161.89L56.9,161.89L58.48,161.89L60.06,148.45L61.64,175.33L63.22,70.91L64.8,175.33L66.38,153.62L67.96,167.06L69.54,167.06L71.12,167.06L72.7,76.08L74.28,172.23L75.86,158.79L77.44,158.79L79.02,158.79L80.6,172.23L82.18,172.23L83.76,67.8L85.35,67.8L86.93,163.96L88.51,150.52L90.09,163.96L91.67,150.52L93.25,163.96L94.83,163.96L96.41,72.97L97.99,72.97L99.57,177.4L101.15,155.69L102.73,155.69L104.31,155.69L105.89,169.13L107.47,169.13L109.05,169.13L110.63,78.14L112.21,160.86L113.79,64.7L115.37,160.86L116.95,169.13L118.54,160.86L120.12,160.86L121.7,147.42L123.28,147.42L124.86,174.3L126.44,160.86L128.02,69.87L129.6,69.87L131.18,174.3L132.76,174.3L134.34,152.59L135.92,152.59L137.5,166.03L139.08,152.59L140.66,166.03L142.24,88.48L143.82,166.03L145.4,166.03L146.98,75.04L148.56,75.04L150.14,171.2L151.73,61.6L153.31,157.76L154.89,157.76L156.47,157.76L159.63,157.76L161.21,93.65L162.79,171.2L164.37,144.31L165.95,171.2L167.53,80.21L169.11,66.77L170.69,66.77L172.27,66.77L173.85,112.26L175.43,162.92L177.01,171.2L178.59,149.48L180.17,149.48L181.75,162.92L183.33,162.92L184.91,149.48L186.5,149.48L188.08,162.92L189.66,85.38L191.24,162.92L192.82,136.04L194.4,71.94L195.98,71.94L197.56,71.94L199.14,136.04L200.72,176.37L202.3,58.5L203.88,154.65L205.46,154.65L207.04,154.65L208.62,154.65L210.2,154.65L211.78,141.21L213.36,168.09L214.94,90.55L216.52,168.09L218.1,141.21L219.69,168.09L221.27,168.09L222.85,77.11L224.43,77.11L226.01,159.82L227.59,63.67L229.17,63.67L230.75,63.67L232.33,159.82L233.91,159.82L235.49,168.09L237.07,168.09L238.65,159.82L240.23,146.38L241.81,159.82L243.39,95.72L244.97,146.38L246.55,146.38L248.13,146.38L249.71,127.77L251.29,173.26L252.88,82.28L254.46,159.82L256.04,159.82L257.62,68.84L259.2,68.84L260.78,68.84L262.36,114.33L263.94,173.26L265.52,132.94L267.1,173.26L268.68,55.4L270.26,151.55L271.84,151.55L273.42,151.55L275,100.89L276.58,164.99L278.16,151.55L279.74,151.55L281.32,151.55L282.9,164.99L284.48,164.99L286.06,87.45L287.65,87.45L289.23,164.99L290.81,138.11L292.39,164.99L293.97,138.11L295.55,74.01L297.13,74.01L298.71,74.01L300.29,138.11L301.87,170.16L303.45,60.57L305.03,60.57L306.61,60.57L308.19,156.72L309.77,156.72L311.35,156.72L312.93,60.57L314.51,156.72L316.09,164.99L317.67,156.72L319.25,143.28L320.84,156.72L322.42,156.72L324,92.62L325.58,92.62L327.16,170.16L328.74,143.28L330.32,143.28L331.9,143.28L333.48,170.16L335.06,170.16L336.64,79.18L338.22,79.18L339.8,65.74L341.38,156.72L342.96,65.74L344.54,129.84L346.12,65.74L347.7,65.74L349.28,111.23L350.86,111.23L352.44,161.89L354.03,129.84L355.61,170.16L357.19,170.16L358.77,148.45L360.35,148.45L361.93,148.45L363.51,52.29L365.09,161.89L366.67,97.79L368.25,161.89L369.83,52.29L371.41,148.45L372.99,148.45L374.57,148.45L376.15,129.84L377.73,161.89L379.31,161.89L380.89,84.35L382.47,84.35L384.05,161.89L385.63,161.89L387.21,135.01L388.8,135.01L390.38,70.91L391.96,135.01L393.54,70.91L395.12,116.4L396.7,70.91L398.28,70.91L399.86,135.01L401.44,135.01L403.02,175.33L404.6,57.46L406.18,57.46L407.76,57.46L409.34,153.62L410.92,153.62L412.5,153.62L414.08,102.96L415.66,153.62L417.24,57.46L418.82,153.62L420.4,161.89L421.99,153.62L423.57,153.62L425.15,140.18L426.73,140.18L428.31,167.06L429.89,153.62L431.47,89.52L433.05,89.52L434.63,167.06L436.21,167.06L437.79,140.18L439.37,140.18L440.95,167.06L442.53,140.18L444.11,167.06L445.69,121.57L447.27,76.08L448.85,76.08L450.43,76.08L452.01,140.18L453.59,158.79L455.18,153.62L456.76,62.63L458.34,62.63L459.92,62.63L461.5,62.63L463.08,62.63L464.66,126.74L466.24,158.79L467.82,108.13L469.4,158.79L470.98,62.63L472.56,167.06L474.14,167.06L475.72,167.06L477.3,140.18L478.88,158.79L480.46,145.35L482.04,145.35L483.62,145.35L485.2,158.79L486.78,158.79L488.36,94.69L489.95,94.69L491.53,145.35L493.11,49.19L494.69,145.35L496.27,145.35L497.85,145.35L499.43,145.35L501.01,126.74L502.59,126.74L504.17,172.23L505.75,158.79L507.33,81.24L508.91,81.24L510.49,158.79L512.07,158.79L513.65,158.79L515.23,35.75L516.81,67.8L518.39,131.91L519.97,67.8L521.55,158.79L523.14,67.8L524.72,67.8L526.3,113.3L527.88,113.3L529.46,172.23L531.04,67.8L532.62,131.91L534.2,131.91L535.78,172.23L537.36,172.23L538.94,54.36L540.52,54.36L542.1,150.52L543.68,54.36L545.26,150.52L546.84,54.36L548.42,150.52L550,150.52L551.58,99.86L553.16,99.86L554.74,163.96L556.33,54.36L557.91,150.52L559.49,150.52L561.07,150.52L562.65,150.52L564.23,150.52L565.81,131.91L567.39,163.96L568.97,137.08L570.55,163.96L572.13,137.08L573.71,86.41L575.29,86.41L576.87,86.41L578.45,137.08L580.03,163.96L581.61,163.96L583.19,137.08L584.77,137.08L586.35,163.96L587.93,163.96L589.51,137.08L591.1,137.08L592.68,72.97L594.26,118.47L595.84,72.97L597.42,123.64L599,72.97L600.58,72.97L602.16,137.08L603.74,137.08L605.32,169.13L606.9,150.52L608.48,59.53L610.06,59.53L611.64,59.53L613.22,59.53L614.8,59.53L616.38,59.53L617.96,155.69L619.54,123.64L621.12,155.69L622.7,105.03L624.29,155.69L625.87,155.69L627.45,59.53L629.03,59.53L630.61,155.69L632.19,163.96L633.77,163.96L635.35,163.96L636.93,155.69L638.51,155.69L640.09,142.25L641.67,142.25L643.25,155.69L644.83,142.25L646.41,155.69L647.99,46.09L649.57,91.58L651.15,91.58L652.73,91.58L654.31,46.09L655.89,169.13L657.48,46.09L659.06,142.25L660.64,142.25L662.22,142.25L663.8,142.25L665.38,142.25L666.96,150.52L668.54,169.13L670.12,123.64L671.7,169.13L673.28,128.81L674.86,78.14L676.44,78.14L678.02,78.14L679.6,142.25L681.18,64.7L682.76,155.69L684.34,155.69L685.92,155.69L687.5,64.7L689.08,64.7L690.67,128.81L692.25,128.81L693.83,64.7L695.41,155.69L696.99,64.7L698.57,128.81L700.15,110.19L701.73,110.19L703.31,110.19L704.89,83.31L706.47,160.86L708.05,64.7L709.63,128.81L711.21,128.81L712.79,169.13L714.37,169.13L715.95,169.13L717.53,142.25L719.11,147.42L720.69,51.26L722.27,147.42L723.85,51.26L725.44,147.42L727.02,147.42L728.6,51.26L730.18,51.26L731.76,160.86L733.34,147.42L734.92,96.75L736.5,96.75L738.08,160.86L739.66,160.86L741.24,51.26L742.82,51.26L744.4,147.42L745.98,147.42L747.56,147.42L749.14,155.69L750.72,147.42L752.3,147.42L753.88,128.81L755.46,128.81L757.04,160.86L758.63,133.97L760.21,160.86L761.79,160.86L763.37,83.31L764.95,83.31L766.53,83.31L768.11,37.82L769.69,160.86L771.27,133.97L772.85,160.86L774.43,37.82L776.01,133.97L777.59,133.97L779.17,133.97L780.75,83.31L782.33,69.87L783.91,160.86L785.49,133.97L787.07,133.97L788.65,69.87L790.23,69.87L791.82,115.36L793.4,115.36L794.98,69.87L796.56,120.53L798.14,69.87L799.72,147.42L801.3,133.97L802.88,133.97L804.46,133.97L806.04,120.53L807.62,174.3L809.2,147.42L810.78,56.43L812.36,56.43L813.94,56.43L815.52,56.43L817.1,56.43L818.68,120.53L820.26,152.59L821.84,56.43L823.42,152.59L825,56.43L826.59,152.59L828.17,152.59L829.75,101.92L831.33,101.92L832.91,152.59L834.49,152.59L836.07,56.43L837.65,56.43L839.23,152.59L840.81,152.59L842.39,160.86L843.97,160.86L845.55,152.59L847.13,160.86L848.71,152.59L850.29,133.97L851.87,139.14L853.45,139.14L855.03,139.14L856.61,42.99L858.19,166.03L859.78,139.14L861.36,152.59L862.94,152.59L864.52,88.48L866.1,88.48L867.68,88.48L869.26,139.14L870.84,166.03L872.42,42.99L874,166.03L875.58,152.59L877.16,139.14L878.74,139.14L880.32,139.14L881.9,93.65L883.48,166.03L885.06,139.14L886.64,139.14L888.22,139.14L889.8,166.03L891.38,166.03L892.97,120.53L894.55,120.53L896.13,75.04L897.71,125.7L899.29,75.04L900.87,152.59L902.45,75.04L904.03,75.04L905.61,139.14L907.19,139.14L908.77,157.76L910.35,152.59L911.93,152.59L913.51,152.59L915.09,61.6L916.67,61.6L918.25,61.6L919.83,152.59L921.41,61.6L922.99,125.7L924.57,61.6L926.15,61.6L927.74,61.6L929.32,61.6L930.9,125.7L932.48,125.7L934.06,157.76L935.64,107.09L937.22,107.09L938.8,107.09L940.38,157.76L941.96,157.76L943.54,61.6L945.12,61.6L946.7,166.03L948.28,125.7L949.86,166.03L951.44,112.26L953.02,166.03L954.6,166.03L956.18,139.14L957.76,139.14L959.34,157.76L960.93,48.16L962.51,144.31L964.09,144.31L965.67,144.31L967.25,144.31L968.83,144.31L970.41,112.26L971.99,157.76L973.57,48.16L975.15,157.76L976.73,48.16L978.31,93.65L979.89,93.65L981.47,93.65L983.05,48.16L984.63,144.31L986.21,157.76L987.79,48.16L989.37,48.16L990.95,144.31L992.53,144.31L994.12,144.31L995.7,144.31L997.28,144.31L998.86,152.59L1000.44,144.31L1002.02,152.59L1003.6,125.7L1005.18,125.7L1006.76,125.7L1008.34,48.16L1009.92,171.2L1011.5,130.87L1013.08,157.76L1014.66,157.76L1016.24,80.21L1017.82,80.21L1019.4,80.21L1020.98,144.31L1022.56,157.76L1024.14,34.72L1025.72,157.76L1027.3,80.21L1028.89,157.76L1030.47,157.76L1032.05,34.72L1033.63,34.72L1035.21,66.77L1036.79,130.87L1038.37,130.87L1039.95,130.87L1041.53,66.77L1043.11,66.77L1044.69,157.76L1046.27,157.76L1047.85,66.77L1049.43,130.87L1051.01,66.77L1052.59,34.72L1054.17,112.26L1055.75,112.26L1057.33,112.26L1058.91,85.38L1060.49,171.2L1062.08,117.43L1063.66,66.77L1065.24,66.77L1066.82,130.87L1068.4,130.87L1069.98,130.87L1071.56,117.43L1073.14,171.2L1074.72,117.43L1076.3,171.2L1077.88,144.31L1079.46,53.33L1081.04,53.33L1082.62,53.33L1084.2,144.31L1085.78,149.48L1087.36,53.33L1088.94,53.33L1090.52,53.33L1092.1,149.48L1093.68,149.48L1095.27,53.33L1098.43,149.48L1100.01,53.33L1101.59,149.48L1103.17,117.43L1104.75,98.82L1107.91,98.82L1109.49,7.84L1111.07,162.92L1112.65,149.48L1114.23,53.33L1117.39,149.48L1118.97,149.48L1122.13,117.43L1123.71,149.48L1125.29,157.76L1126.87,149.48L1128.45,157.76L1130.04,149.48L1131.62,149.48L1133.2,130.87L1136.36,162.92L1137.94,136.04L1141.1,136.04L1142.68,162.92L1145.84,136.04L1147.42,136.04L1149,85.38L1150.58,149.48L1152.16,85.38L1153.74,39.89L1155.32,85.38L1156.9,85.38L1158.48,136.04L1160.06,136.04L1161.64,162.92L1163.23,39.89L1164.81,162.92L1166.39,162.92L1167.97,136.04L1169.55,136.04L1171.13,136.04L1172.71,85.38L1174.29,162.92L1175.87,90.55L1177.45,162.92L1180.61,136.04L1182.19,136.04L1185.35,39.89L1186.93,71.94L1188.51,162.92L1190.09,117.43L1193.25,71.94L1194.83,71.94L1196.42,122.6L1199.58,71.94L1201.16,149.48L1204.32,26.45L1205.9,136.04L1207.48,136.04L1210.64,122.6L1212.22,168.09L1213.8,149.48L1218.54,58.5L1220.12,58.5L1223.28,26.45L1224.86,58.5L1226.44,149.48L1228.02,58.5L1231.19,58.5L1232.77,58.5L1237.51,154.65L1239.09,58.5L1240.67,122.6L1243.83,154.65L1245.41,154.65L1246.99,103.99L1250.15,154.65L1253.31,154.65L1256.47,58.5L1258.05,58.5L1259.63,58.5L1262.79,154.65L1265.96,162.92L1267.54,162.92L1273.86,109.16L1275.44,154.65L1280.18,45.06L1281.76,141.21L1286.5,45.06L1288.08,154.65L1289.66,141.21L1291.24,141.21L1294.4,154.65L1297.57,45.06L1299.15,45.06L1300.73,90.55L1305.47,141.21L1307.05,90.55L1310.21,45.06L1313.37,168.09L1314.95,154.65L1316.53,45.06L1321.27,141.21L1322.85,141.21L1324.43,95.72L1329.17,141.21L1330.76,141.21L1335.5,149.48L1338.66,168.09L1340.24,122.6L1344.98,168.09L1348.14,127.77L1352.88,154.65L1356.04,31.62L1357.62,77.11L1360.78,141.21L1365.53,31.62L1367.11,154.65L1368.69,154.65L1375.01,-0.44L1376.59,63.67L1378.17,31.62L1381.33,154.65L1386.07,127.77L1387.65,31.62L1392.39,154.65L1395.55,63.67L1398.72,127.77L1403.46,31.62L1405.04,109.16L1406.62,136.04L1411.36,82.28L1414.52,159.82L1417.68,63.67L1420.84,127.77L1425.58,63.67L1427.16,168.09L1428.74,114.33L1436.65,141.21L1439.81,146.38L1441.39,50.23L1447.71,146.38L1449.29,50.23L1452.45,146.38L1458.77,50.23L1460.35,50.23L1465.09,159.82L1469.84,146.38L1477.74,159.82L1479.32,4.73L1480.9,159.82L1484.06,50.23L1488.8,146.38L1491.96,146.38L1493.54,146.38L1499.87,154.65L1504.61,154.65L1514.09,50.23L1515.67,159.82L1517.25,132.94L1521.99,159.82L1526.73,36.79L1529.89,132.94L1537.8,36.79L1540.96,159.82L1542.54,82.28L1547.28,159.82L1550.44,36.79L1555.18,159.82L1558.34,146.38L1566.24,68.84L1567.83,87.45L1569.41,159.82L1580.47,36.79L1582.05,68.84L1583.63,141.21L1591.53,68.84L1596.27,119.5L1601.02,146.38L1605.76,23.35L1610.5,132.94L1616.82,173.26L1623.14,55.4L1624.72,55.4L1627.88,146.38L1631.04,23.35L1638.95,119.5L1642.11,151.55L1643.69,55.4L1653.17,55.4L1654.75,151.55L1665.81,9.9L1668.98,100.89L1670.56,151.55L1673.72,55.4L1684.78,119.5L1686.36,159.82L1691.1,9.9L1700.58,151.55L1705.33,138.11L1706.91,41.96L1716.39,41.96L1717.97,164.99L1730.61,87.45L1732.19,41.96L1743.26,164.99L1746.42,41.96L1749.58,164.99L1751.16,164.99L1757.48,41.96L1766.96,92.62L1768.54,164.99L1779.61,41.96L1784.35,164.99L1793.83,74.01L1795.41,164.99L1801.73,74.01L1808.06,28.51L1819.12,156.72L1820.7,28.51L1822.28,151.55L1833.34,-3.54L1839.67,60.57L1841.25,151.55L1844.41,60.57L1858.63,151.55L1869.69,156.72L1871.28,28.51L1877.6,106.06L1887.08,60.57L1894.98,164.99L1898.14,124.67L1901.3,164.99L1904.47,111.23L1918.69,15.07L1920.27,156.72L1921.85,47.13L1939.24,143.28L1945.56,156.72L1947.14,47.13L1959.78,143.28L1972.43,1.63L1974.01,156.72L1981.91,92.62L1994.55,1.63L1999.29,151.55L2004.03,143.28L2018.26,47.13L2021.42,170.16L2026.16,129.84L2027.74,156.72L2032.48,33.68L2048.29,79.18L2053.03,156.72L2064.09,1.63L2072,65.74L2073.58,156.72L2083.06,33.68L2095.7,129.84L2106.77,33.68L2114.67,156.72L2119.41,84.35L2122.57,170.16L2133.63,20.24L2144.7,116.4L2147.86,170.16L2160.5,52.29L2169.98,143.28L2173.15,148.45L2174.73,20.24L2195.27,52.29L2198.43,148.45L2220.56,6.8L2222.14,6.8L2223.72,161.89L2230.04,52.29L2249.01,148.45L2272.71,52.29L2274.3,161.89L2275.88,38.85L2286.94,161.89L2288.52,38.85L2304.32,148.45L2323.29,6.8L2324.87,161.89L2332.77,161.89L2334.35,161.89L2342.26,38.85L2361.22,135.01L2372.28,38.85L2378.61,161.89L2391.25,70.91L2399.15,25.41L2403.89,148.45L2421.28,135.01L2426.02,167.06L2427.6,25.41L2451.31,57.46L2468.69,25.41L2476.6,153.62L2482.92,121.57L2489.24,153.62L2500.3,11.97L2514.53,57.46L2533.49,161.89L2538.23,11.97L2547.72,161.89L2552.46,153.62L2561.94,44.02L2580.91,140.18L2590.39,153.62L2596.71,44.02L2614.1,140.18L2628.32,167.06L2629.9,-1.47L2648.87,140.18L2677.31,-1.47L2678.9,167.06L2683.64,121.57L2691.54,167.06L2696.28,30.58L2719.99,76.08L2735.79,153.62L2751.6,-1.47L2756.34,30.58L2757.92,30.58L2764.24,153.62L2794.27,126.74L2808.49,30.58L2830.62,158.79L2832.2,62.63L2844.84,17.14L2855.91,167.06L2871.71,167.06L2873.29,17.14L2881.2,145.35L2911.22,49.19L2919.13,49.19L2931.77,158.79L2952.32,94.69L2957.06,158.79L2960.22,3.7L2993.41,3.7L3025.02,3.7L3032.92,158.79L3036.08,131.91L3045.56,158.79L3050.31,35.75L3078.75,35.75L3081.91,3.7L3083.5,158.79L3123.01,35.75L3126.17,35.75L3140.39,158.79L3157.78,131.91" style="stroke-width: 2px; stroke: #1f77b4; stroke-opacity: 1; fill: none;"></path></g><g class="trace scatter" style="stroke-miterlimit: 2; opacity: 1;"><path class="js-line" d="M0,174.3L31.61,157.76L63.22,145.35L94.83,144.31L126.44,136.04L158.05,136.04L189.66,131.91L221.27,131.91L252.88,130.87L284.48,117.43L316.09,127.77L347.7,131.91L379.31,112.26L410.92,141.21L442.53,111.23L474.14,139.14L505.75,115.36L537.36,123.64L568.97,125.7L600.58,108.13L632.19,127.77L663.8,119.5L695.41,122.6L727.02,124.67L758.63,115.36L790.23,106.06L821.84,128.81L853.45,127.77L885.06,126.74L916.67,102.96L948.28,128.81L979.89,120.53L1011.5,109.16L1043.11,111.23L1074.72,101.92L1106.33,126.74L1137.94,124.67L1169.55,115.36L1201.16,102.96L1232.77,105.03L1264.38,137.08L1295.98,98.82L1327.59,127.77L1359.2,101.92L1390.81,102.96L1422.42,118.47L1454.03,92.62L1485.64,131.91L1517.25,113.3L1548.86,116.4L1580.47,101.92L1612.08,99.86L1643.69,100.89L1675.3,128.81L1706.91,109.16L1738.52,118.47L1770.13,126.74L1801.73,117.43L1833.34,86.41L1864.95,106.06L1896.56,118.47L1928.17,101.92L1959.78,99.86L1991.39,124.67L2023,106.06L2054.61,95.72L2086.22,108.13L2117.83,105.03L2149.44,101.92L2181.05,98.82L2212.66,95.72L2244.27,139.14L2275.88,115.36L2307.48,98.82L2339.09,125.7L2370.7,97.79L2402.31,111.23L2433.92,87.45L2465.53,98.82L2497.14,95.72L2528.75,136.04L2560.36,109.16L2591.97,90.55L2623.58,98.82L2655.19,129.84L2686.8,100.89L2718.41,114.33L2750.02,82.28L2781.63,94.69L2813.24,105.03L2844.84,119.5L2876.45,87.45L2908.06,85.38L2939.67,98.82L2971.28,116.4L3002.89,121.57L3034.5,113.3L3066.11,100.89L3097.72,101.92L3129.33,123.64L3160.94,123.64" style="stroke-width: 2px; stroke: #ff7f0e; stroke-opacity: 1; fill: none;"></path></g><g class="trace scatter" style="stroke-miterlimit: 2; opacity: 1;"><g class="points"></g></g><g class="trace scatter" style="stroke-miterlimit: 2; opacity: 1;"><g class="points"></g></g></svg><g></g><path class="crisp" d="M77,296.5h1018M77,97.5h1018" style="fill: none; stroke-width: 1px; stroke: #000000; stroke-opacity: 1;"></path><path class="crisp" d="M77.5,98v198M1094.5,98v198" stroke-width="1px" style="fill: none; stroke: #000000; stroke-opacity: 1;"></path><g></g><g><path class="xtick ticks crisp" d="M80,297v5" transform="translate(156.47,0)" style="stroke: #000000; stroke-opacity: 1; stroke-width: 1px;"></path><path class="xtick ticks crisp" d="M80,297v5" transform="translate(314.51,0)" style="stroke: #000000; stroke-opacity: 1; stroke-width: 1px;"></path><path class="xtick ticks crisp" d="M80,297v5" transform="translate(472.56,0)" style="stroke: #000000; stroke-opacity: 1; stroke-width: 1px;"></path><path class="xtick ticks crisp" d="M80,297v5" transform="translate(630.61,0)" style="stroke: #000000; stroke-opacity: 1; stroke-width: 1px;"></path><path class="xtick ticks crisp" d="M80,297v5" transform="translate(788.65,0)" style="stroke: #000000; stroke-opacity: 1; stroke-width: 1px;"></path><path class="xtick ticks crisp" d="M80,297v5" transform="translate(946.7,0)" style="stroke: #000000; stroke-opacity: 1; stroke-width: 1px;"></path><text class="xtick" x="80" y="315" transform="translate(156.47,0)" text-anchor="middle" style="font-family: 'Open sans', verdana, arial, sans-serif; font-size: 12px; fill: #000000; fill-opacity: 1;"><tspan class="nl">100</tspan></text><text class="xtick" x="80" y="315" transform="translate(314.51,0)" text-anchor="middle" style="font-family: 'Open sans', verdana, arial, sans-serif; font-size: 12px; fill: #000000; fill-opacity: 1;"><tspan class="nl">200</tspan></text><text class="xtick" x="80" y="315" transform="translate(472.56,0)" text-anchor="middle" style="font-family: 'Open sans', verdana, arial, sans-serif; font-size: 12px; fill: #000000; fill-opacity: 1;"><tspan class="nl">300</tspan></text><text class="xtick" x="80" y="315" transform="translate(630.61,0)" text-anchor="middle" style="font-family: 'Open sans', verdana, arial, sans-serif; font-size: 12px; fill: #000000; fill-opacity: 1;"><tspan class="nl">400</tspan></text><text class="xtick" x="80" y="315" transform="translate(788.65,0)" text-anchor="middle" style="font-family: 'Open sans', verdana, arial, sans-serif; font-size: 12px; fill: #000000; fill-opacity: 1;"><tspan class="nl">500</tspan></text><text class="xtick" x="80" y="315" transform="translate(946.7,0)" text-anchor="middle" style="font-family: 'Open sans', verdana, arial, sans-serif; font-size: 12px; fill: #000000; fill-opacity: 1;"><tspan class="nl">600</tspan></text><path class="ytick ticks crisp" d="M77,100h-5" transform="translate(0,183.6)" style="stroke: #000000; stroke-opacity: 1; stroke-width: 1px;"></path><path class="ytick ticks crisp" d="M77,100h-5" transform="translate(0,131.91)" style="stroke: #000000; stroke-opacity: 1; stroke-width: 1px;"></path><path class="ytick ticks crisp" d="M77,100h-5" transform="translate(0,80.21)" style="stroke: #000000; stroke-opacity: 1; stroke-width: 1px;"></path><path class="ytick ticks crisp" d="M77,100h-5" transform="translate(0,28.51)" style="stroke: #000000; stroke-opacity: 1; stroke-width: 1px;"></path><text class="ytick" x="71" y="106" transform="translate(0,183.6)" text-anchor="end" style="font-family: 'Open sans', verdana, arial, sans-serif; font-size: 12px; fill: #000000; fill-opacity: 1;"><tspan class="nl">0</tspan></text><text class="ytick" x="71" y="106" transform="translate(0,131.91)" text-anchor="end" style="font-family: 'Open sans', verdana, arial, sans-serif; font-size: 12px; fill: #000000; fill-opacity: 1;"><tspan class="nl">50</tspan></text><text class="ytick" x="71" y="106" transform="translate(0,80.21)" text-anchor="end" style="font-family: 'Open sans', verdana, arial, sans-serif; font-size: 12px; fill: #000000; fill-opacity: 1;"><tspan class="nl">100</tspan></text><text class="ytick" x="71" y="106" transform="translate(0,28.51)" text-anchor="end" style="font-family: 'Open sans', verdana, arial, sans-serif; font-size: 12px; fill: #000000; fill-opacity: 1;"><tspan class="nl">150</tspan></text></g><g></g></g><g><rect class="drag nsewdrag cursor-crosshair" x="80" y="100" width="1012" height="194" data-subplot="xy" style="fill: #000000; opacity: 0; stroke-width: 0px;"></rect><rect class="drag nwdrag cursor-nw-resize" x="60" y="80" width="20" height="20" data-subplot="xy" style="fill: #000000; opacity: 0; stroke-width: 0px;"></rect><rect class="drag nedrag cursor-ne-resize" x="1092" y="80" width="20" height="20" data-subplot="xy" style="fill: #000000; opacity: 0; stroke-width: 0px;"></rect><rect class="drag swdrag cursor-sw-resize" x="60" y="294" width="20" height="20" data-subplot="xy" style="fill: #000000; opacity: 0; stroke-width: 0px;"></rect><rect class="drag sedrag cursor-se-resize" x="1092" y="294" width="20" height="20" data-subplot="xy" style="fill: #000000; opacity: 0; stroke-width: 0px;"></rect><rect class="drag ewdrag cursor-ew-resize" x="181.2" y="296.5" width="809.6" height="20" data-subplot="xy" style="fill: #000000; opacity: 0; stroke-width: 0px;"></rect><rect class="drag wdrag cursor-w-resize" x="80" y="296.5" width="101.2" height="20" data-subplot="xy" style="fill: #000000; opacity: 0; stroke-width: 0px;"></rect><rect class="drag edrag cursor-e-resize" x="990.8000000000001" y="296.5" width="101.2" height="20" data-subplot="xy" style="fill: #000000; opacity: 0; stroke-width: 0px;"></rect><rect class="drag nsdrag cursor-ns-resize" x="57.5" y="119.4" width="20" height="155.20000000000002" data-subplot="xy" style="fill: #000000; opacity: 0; stroke-width: 0px;"></rect><rect class="drag sdrag cursor-s-resize" x="57.5" y="274.6" width="20" height="19.400000000000002" data-subplot="xy" style="fill: #000000; opacity: 0; stroke-width: 0px;"></rect><rect class="drag ndrag cursor-n-resize" x="57.5" y="100" width="20" height="19.400000000000002" data-subplot="xy" style="fill: #000000; opacity: 0; stroke-width: 0px;"></rect></g><g class="infolayer"><svg class="legend" x="869" y="104" width="203" height="52"><rect class="bg" style="stroke: #000000; stroke-opacity: 1; fill: #ffffff; opacity: 1; stroke-width: 1px;" x="0.5" y="0.5" width="202" height="51"></rect><g class="traces" transform="translate(1,14.5)"><g class="legendfill"></g><g class="legendlines"><path d="M5,0h30" style="stroke-width: 2px; stroke: #ffa500; stroke-opacity: 1; fill: none;"></path></g><g class="legendsymbols" style="opacity: 1;"><g class="legendpoints"><path class="scatterpts" transform="translate(20,0)" d="M3,0A3,3 0 1,1 0,-3A3,3 0 0,1 3,0Z" style="opacity: 1; stroke-width: 0px; fill: #ffa500; fill-opacity: 1;"></path></g></g><text class="legendtext text-2" x="40" y="4.5" xml:space="preserve" style="text-anchor: start; font-family: 'Open sans', verdana, arial, sans-serif; font-size: 12px; fill: #000000; opacity: 1; pointer-events: all;">Collatz stoping times</text></g><g class="traces" transform="translate(1,34.5)"><g class="legendfill"></g><g class="legendlines"><path d="M5,0h30" style="stroke-width: 3px; stroke: #808080; stroke-opacity: 1; fill: none;"></path></g><g class="legendsymbols" style="opacity: 1;"><g class="legendpoints"><path class="scatterpts" transform="translate(20,0)" d="M3,0A3,3 0 1,1 0,-3A3,3 0 0,1 3,0Z" style="opacity: 1; stroke-width: 0px; fill: #808080; fill-opacity: 1;"></path></g></g><text class="legendtext text-3" x="40" y="4.5" xml:space="preserve" style="text-anchor: start; font-family: 'Open sans', verdana, arial, sans-serif; font-size: 12px; fill: #000000; opacity: 1; pointer-events: all;">Stoping times averages (20)</text></g></svg></g><g class="hoverlayer"></g></svg>
